# xmcd
#
# Track frame offsets:
#	150
#	13483
#	30811
#	43089
#	60913
#	81097
#	100506
#	114020
#	132375
#	156068
#	174415
#	195156
#
# Disc length: 2851 seconds
# Revision: 0
# Processed by: cddbd v1.5.2PL0 Copyright (c) Steve Scherf et al.
# Submitted via: dBpowerAMP V12.0
#
DISCID=800b210c
DTITLE=Greg Bain - Staying True
DYEAR=1900
DGENRE=Country
TTITLE0=The Man That Shapes The Steel
TTITLE1=Kimberley Skies
TTITLE2=Just Call Me Mate
TTITLE3=No Going Back
TTITLE4=The Lame Fiddler
TTITLE5=When The Moon Across The Bushland Beams
TTITLE6=Queensland Drover
TTITLE7=The Ballot
TTITLE8=Fishin With Me Dad
TTITLE9=The Sulky
TTITLE10=The Pony of The Pit
TTITLE11=The Canning Stock Route
EXTD=
EXTT0=
EXTT1=
EXTT2=
EXTT3=
EXTT4=
EXTT5=
EXTT6=
EXTT7=
EXTT8=
EXTT9=
EXTT10=
EXTT11=
PLAYORDER=
